Coordinates
version=1
nRows=17
nColumns=40
inDegrees=yes
endheader
time	pelvis_tilt	pelvis_list	pelvis_rotation	pelvis_tx	pelvis_ty	pelvis_tz	hip_flexion_r	hip_adduction_r	hip_rotation_r	knee_angle_r	knee_angle_r_beta	ankle_angle_r	subtalar_angle_r	mtp_angle_r	hip_flexion_l	hip_adduction_l	hip_rotation_l	knee_angle_l	knee_angle_l_beta	ankle_angle_l	subtalar_angle_l	mtp_angle_l	lumbar_extension	lumbar_bending	lumbar_rotation	arm_flex_r	arm_add_r	arm_rot_r	elbow_flex_r	pro_sup_r	wrist_flex_r	wrist_dev_r	arm_flex_l	arm_add_l	arm_rot_l	elbow_flex_l	pro_sup_l	wrist_flex_l	wrist_dev_l
1760625423.27399993	      7.62965247	     -1.36170866	     -1.32364276	     -0.02625224	      0.95906156	     -0.01261905	     80.00000000	     -7.00000000	      0.00000000	     80.00000000	      1.39626340	      0.00000000	      0.00000000	      0.00000000	     80.00000000	     -7.00000000	      0.00000000	     80.00000000	      1.39626340	      0.00000000	      0.00000000	      0.00000000	     -8.05223630	      0.65778159	      8.49862565	      1.22740814	    -22.98423056	     -0.28973226	     40.27504649	    141.41441668	    -12.05442754	     21.00710258	      1.45642265	     -8.50779697	     16.29494330	     56.52363883	    130.03653062	    -11.81521744	     24.35029882
1760625423.34100008	      7.75691777	     -2.09234602	     -1.30269113	     -0.02096948	      0.95594524	     -0.01217668	     80.00000000	     -7.00000000	      0.00000000	     80.00000000	      1.39626340	      0.00000000	      0.00000000	      0.00000000	     80.00000000	     -7.00000000	      0.00000000	     80.00000000	      1.39626340	      0.00000000	      0.00000000	      0.00000000	     -8.28369441	      1.39459585	      8.59933437	      2.51468293	    -22.16731683	      6.31599037	     30.38141549	    134.50496483	    -15.57643587	     15.30259596	      0.32486147	     -7.96401260	     19.56687706	     49.98885075	    122.87964764	    -19.71115631	     16.89504030
1760625423.37500000	      7.95463384	     -2.26785137	     -1.18748805	     -0.02072298	      0.95372403	     -0.01205694	     80.00000000	     -7.00000000	      0.00000000	     80.00000000	      1.39626340	      0.00000000	      0.00000000	      0.00000000	     80.00000000	     -7.00000000	      0.00000000	     80.00000000	      1.39626340	      0.00000000	      0.00000000	      0.00000000	     -8.38611795	      1.52014112	      8.63583656	      3.24072241	    -21.93884187	      8.07417233	     27.31900442	    132.98469750	    -20.27493144	     13.52632929	      0.64680568	     -8.15336122	     18.00664919	     48.91297505	    124.38759918	    -17.36614694	     17.17136555
1760625423.40799999	      8.66050004	     -2.59528370	     -0.87659763	     -0.02191420	      0.95289514	     -0.01204946	     80.00000000	     -7.00000000	      0.00000000	     80.00000000	      1.39626340	      0.00000000	      0.00000000	      0.00000000	     80.00000000	     -7.00000000	      0.00000000	     80.00000000	      1.39626340	      0.00000000	      0.00000000	      0.00000000	     -9.05994089	      1.90495709	      8.66817878	      2.73527099	    -21.97941159	      6.79350643	     28.33454832	    133.89952447	    -19.48663543	     14.29890121	      1.37523430	     -8.02602264	     16.79719229	     49.34026454	    124.55796659	    -15.74439467	     17.03802801
1760625423.44199991	      9.28398763	     -2.89929399	     -0.65671659	     -0.02445210	      0.95317527	     -0.01324335	     80.00000000	     -7.00000000	      0.00000000	     80.00000000	      1.39626340	      0.00000000	      0.00000000	      0.00000000	     80.00000000	     -7.00000000	      0.00000000	     80.00000000	      1.39626340	      0.00000000	      0.00000000	      0.00000000	     -9.87846127	      2.20429756	      8.50039190	      3.19740056	    -22.24022089	      6.51392620	     27.57668412	    132.84823855	    -21.39172033	     12.84103274	      1.43888666	     -7.88893193	     16.65846985	     51.64209572	    122.46936977	    -16.86201392	     16.53570145
1760625423.47499990	      9.70611138	     -3.10788570	     -0.41407294	     -0.02701613	      0.95408862	     -0.01489854	     80.00000000	     -7.00000000	      0.00000000	     80.00000000	      1.39626340	      0.00000000	      0.00000000	      0.00000000	     80.00000000	     -7.00000000	      0.00000000	     80.00000000	      1.39626340	      0.00000000	      0.00000000	      0.00000000	    -10.07428114	      2.38533738	      8.25681773	      4.14908536	    -22.65672442	      7.74727408	     26.55725384	    130.83853439	    -23.26687267	     11.84493146	      0.99054166	     -8.00665431	     16.83241249	     57.10473217	    122.25659931	    -17.27397181	     19.21025492
1760625423.50900006	     10.21375848	     -3.35166675	     -0.26601361	     -0.02975934	      0.95548210	     -0.01707977	     80.00000000	     -7.00000000	      0.00000000	     80.00000000	      1.39626340	      0.00000000	      0.00000000	      0.00000000	     80.00000000	     -7.00000000	      0.00000000	     80.00000000	      1.39626340	      0.00000000	      0.00000000	      0.00000000	    -10.51026955	      2.63954400	      8.19402597	      4.97155336	    -23.65805283	      8.21922877	     26.30838853	    129.14010982	    -25.80327168	     10.94070589	      1.03694332	     -7.88716221	     17.90483017	     62.16043195	    121.44057121	    -19.47573320	     20.56478245
1760625423.54200006	     11.01605421	     -3.33407198	      0.03910555	     -0.03434087	      0.95801733	     -0.01858328	     80.00000000	     -7.00000000	      0.00000000	     80.00000000	      1.39626340	      0.00000000	      0.00000000	      0.00000000	     80.00000000	     -7.00000000	      0.00000000	     80.00000000	      1.39626340	      0.00000000	      0.00000000	      0.00000000	    -11.12599769	      2.65045569	      7.93185908	      5.32083839	    -24.50509709	      8.01840358	     26.69023754	    127.69701092	    -27.44963348	     10.15191656	      1.32531621	     -7.88458818	     17.24556329	     65.59918294	    121.54172770	    -20.01158886	     20.66420917
1760625423.57500005	     11.72349305	     -3.22526758	      0.33951397	     -0.03931518	      0.96012863	     -0.01956441	     80.00000000	     -7.00000000	      0.00000000	     80.00000000	      1.39626340	      0.00000000	      0.00000000	      0.00000000	     80.00000000	     -7.00000000	      0.00000000	     80.00000000	      1.39626340	      0.00000000	      0.00000000	      0.00000000	    -11.70993736	      2.56746625	      7.70737300	      5.61410953	    -25.43145074	      6.74349466	     28.34229674	    127.30217454	    -28.22375139	     10.16532389	      1.70163172	     -7.96103156	     16.56086945	     68.49275323	    121.95640296	    -20.73407881	     19.82326674
1760625423.60899997	     12.46941050	     -3.08499421	      0.50351631	     -0.04463818	      0.96197503	     -0.02103264	     80.00000000	     -7.00000000	      0.00000000	     80.00000000	      1.39626340	      0.00000000	      0.00000000	      0.00000000	     80.00000000	     -7.00000000	      0.00000000	     80.00000000	      1.39626340	      0.00000000	      0.00000000	      0.00000000	    -12.22734108	      2.44878864	      7.54005378	      4.95945518	    -26.76658391	      3.74178572	     31.87056217	    128.31526914	    -29.50086773	     10.43821697	      1.97410330	     -7.94182643	     16.56929226	     74.18258131	    123.06530238	    -22.35777100	     20.34850665
1760625423.64199996	     12.90089106	     -2.92288878	      0.59628177	     -0.04890886	      0.96452602	     -0.02201982	     80.00000000	     -7.00000000	      0.00000000	     80.00000000	      1.39626340	      0.00000000	      0.00000000	      0.00000000	     80.00000000	     -7.00000000	      0.00000000	     80.00000000	      1.39626340	      0.00000000	      0.00000000	      0.00000000	    -12.50061234	      2.30193073	      7.39312073	      4.23912083	    -27.83780890	      1.20187688	     35.24909375	    129.25911782	    -30.51468283	     10.71637919	      2.26567869	     -7.93420380	     16.55706495	     81.05876822	    124.74705464	    -22.61217488	     23.14119153
1760625423.67600012	     12.90998589	     -2.68464304	      0.48663312	     -0.05023693	      0.96622187	     -0.02207234	     80.00000000	     -7.00000000	      0.00000000	     80.00000000	      1.39626340	      0.00000000	      0.00000000	      0.00000000	     80.00000000	     -7.00000000	      0.00000000	     80.00000000	      1.39626340	      0.00000000	      0.00000000	      0.00000000	    -12.31331629	      1.98758954	      7.38641680	      3.62373009	    -28.57948613	     -1.69284949	     39.51307646	    131.12321090	    -30.80810581	     11.93484349	      3.11260246	     -7.96672061	     16.16448634	     87.76707533	    126.36119656	    -22.14015846	     25.88551911
1760625423.70900011	     12.97894938	     -2.54649393	      0.45628915	     -0.05111761	      0.96645484	     -0.02224152	     80.00000000	     -7.00000000	      0.00000000	     80.00000000	      1.39626340	      0.00000000	      0.00000000	      0.00000000	     80.00000000	     -7.00000000	      0.00000000	     80.00000000	      1.39626340	      0.00000000	      0.00000000	      0.00000000	    -12.23545257	      1.82285024	      7.35618083	      3.74912546	    -28.94557762	     -5.16364931	     45.14062230	    134.55800255	    -30.96218474	     14.44051169	      4.15594925	     -7.70285578	     15.47302301	     95.33295288	    129.17672994	    -21.02577445	     28.74065348
1760625423.74300003	     12.30007252	     -2.36995117	      0.12260324	     -0.04557338	      0.96461906	     -0.01987003	     80.00000000	     -7.00000000	      0.00000000	     80.00000000	      1.39626340	      0.00000000	      0.00000000	      0.00000000	     80.00000000	     -7.00000000	      0.00000000	     80.00000000	      1.39626340	      0.00000000	      0.00000000	      0.00000000	    -11.43762216	      1.53740088	      7.60476882	      3.77476321	    -28.61490615	     -7.98292404	     49.94058695	    137.95762272	    -30.42393202	     16.86859345	      4.96800443	     -7.58446535	     14.81964919	    103.88390397	    131.49852760	    -18.31636569	     33.57943893
1760625423.77600002	     11.61384229	     -2.02689167	     -0.15486263	     -0.04220342	      0.96463330	     -0.02013300	     80.00000000	     -7.00000000	      0.00000000	     80.00000000	      1.39626340	      0.00000000	      0.00000000	      0.00000000	     80.00000000	     -7.00000000	      0.00000000	     80.00000000	      1.39626340	      0.00000000	      0.00000000	      0.00000000	    -10.71284631	      1.13816351	      7.72173121	      3.60618916	    -27.89011547	    -10.72976925	     54.91923757	    141.36265067	    -29.44859447	     19.16786869	      5.96167117	     -7.52951768	     14.36093955	    108.35224025	    132.21032816	    -17.64834085	     35.00000010
1760625423.80900002	     11.35364176	     -1.91165593	     -0.24623945	     -0.04077739	      0.96498091	     -0.02034092	     80.00000000	     -7.00000000	      0.00000000	     80.00000000	      1.39626340	      0.00000000	      0.00000000	      0.00000000	     80.00000000	     -7.00000000	      0.00000000	     80.00000000	      1.39626340	      0.00000000	      0.00000000	      0.00000000	    -10.33046506	      1.01158984	      7.73669530	      3.06879665	    -26.44126073	    -13.58295751	     60.40318560	    145.40184679	    -28.32243778	     21.59523372	      6.92328399	     -7.17333165	     14.37174338	    110.44599285	    133.04692164	    -18.16025131	     35.00000010
1760625423.84299994	     10.26021657	     -1.73347062	     -0.47716262	     -0.03424016	      0.96355654	     -0.02058976	     80.00000000	     -7.00000000	      0.00000000	     80.00000000	      1.39626340	      0.00000000	      0.00000000	      0.00000000	     80.00000000	     -7.00000000	      0.00000000	     80.00000000	      1.39626340	      0.00000000	      0.00000000	      0.00000000	     -9.18659937	      0.79014775	      7.87310621	      2.76818088	    -24.75674681	    -15.57404863	     65.19133254	    148.97929622	    -26.14550747	     24.06172357	      7.34367666	     -6.94048823	     14.19260132	    111.35132436	    133.52641474	    -18.03863811	     35.00000010
